<?xml version="1.0" encoding="utf-8"?>
<svg version="1.0" id="Слой_1" x="0px" y="0px" viewBox="0 0 198.4 56.7" style="enable-background:new 0 0 198.4 56.7;" xmlns="http://www.w3.org/2000/svg">
  <style type="text/css">
	.st0{fill:#FDB913;}
	.st1{fill:#40494F;}
</style>
  <path class="st0" d="M6.2,36.6c16-5.5,17.1-17.4,6-17c0.7-1.7,1.8-2.9,3-3.8c6.4,0,9.1,6.7,7,10.9c-2.6,5-9.7,8.1-15.9,10.1 c0.1,0.2,0.3,0.4,0.4,0.6c7.6-1.1,16-3.8,19.8-9.9c3.1-5-2-12.8-9.4-12.4c-0.8,0.4-1,0.4-1.6,0.5c4.3-2.7,10.9-1.2,15.6,4 c4.3,9.4-9.5,20.6-17.6,22.3c8.4-0.8,19-6.4,21.5-14.8c0,0,0.1-0.1,0.2-0.2c0.8,2.6,1.3,5.5,1.3,8.8c1.3-2.4,2-5.2,2-8.1 c0-9.6-7.8-17.4-17.4-17.4c-9.6,0-17.4,7.8-17.4,17.4C3.7,31,4.6,34,6.2,36.6 M21.1,7.6c11.1,0,20.1,9,20.1,20.1 c0,11.1-9,20.1-20.1,20.1C10,47.8,1,38.8,1,27.7C1,16.6,10,7.6,21.1,7.6" style="paint-order: fill;"/>
  <path class="st1" d="M 197.4 47.8 L 197.4 7.6 L 188.7 7.6 L 188.7 25.7 L 182.8 7.6 L 174 7.6 L 174 47.8 L 182.7 47.8 L 182.7 29.5 L 188.1 47.8 L 197.4 47.8 M 177.7 44 L 176.7 44 L 176.7 46.8 L 176.3 46.8 L 176.3 44 L 175.3 44 L 175.3 43.6 L 177.8 43.6 L 177.8 44 M 181.1 46.7 L 180.7 46.7 L 180.7 44.1 L 179.8 46.7 L 179.4 46.7 L 178.894 45.181 L 178.5 44 L 178.5 46.7 L 178.1 46.7 L 178.1 43.6 L 178.7 43.6 L 179.5 45.8 C 179.6 46 179.6 46.2 179.6 46.3 C 179.6 46.2 179.7 46 179.8 45.8 L 180.6 43.6 L 181.2 43.6 L 181.2 46.7 M 169.7 40.9 C 169.9 39.7 170 37.5 170 34.5 L 170 7.6 L 159.5 7.6 L 159.5 37.2 C 159.5 39.2 159.4 40.5 159.2 41 C 159 41.5 158.6 41.8 157.9 41.8 C 157.3 41.8 156.9 41.6 156.7 41.1 C 156.5 40.6 156.4 39.5 156.4 37.7 L 156.4 7.6 L 145.9 7.6 L 145.9 31.4 C 145.9 35.9 146 38.9 146.2 40.3 C 146.4 41.7 146.9 43.1 147.8 44.3 C 148.7 45.6 150.1 46.6 151.9 47.4 C 153.7 48.2 155.9 48.6 158.3 48.6 C 160.5 48.6 162.4 48.3 163.9 47.6 C 165.5 46.9 166.8 45.9 167.8 44.6 C 168.9 43.4 169.5 42.1 169.7 40.9 M 137.6 15.6 L 143.8 15.6 L 143.8 7.6 L 121 7.6 L 121 15.6 L 127.2 15.6 L 127.2 47.8 L 137.6 47.8 L 137.6 15.6 M 119 28 C 119.5 26.8 119.8 25 119.8 22.4 L 119.8 18.9 C 119.8 16.4 119.7 14.5 119.4 13.3 C 119.1 12.1 118.6 11.1 117.8 10.2 C 117 9.4 115.9 8.7 114.3 8.3 C 112.8 7.9 110.6 7.6 107.7 7.6 L 97.2 7.6 L 97.2 47.8 L 105.731 47.8 L 107.7 47.8 L 107.7 31.6 L 110.5 31.6 C 112.8 31.6 114.6 31.3 116 30.7 C 117.5 30 118.4 29.1 119 28 M 111 21.1 C 111 22.6 110.8 23.6 110.4 24 C 110 24.5 109.4 24.7 108.4 24.7 C 108.2 24.7 107.9 24.7 107.6 24.7 L 107.6 14.5 C 109 14.5 109.8 14.7 110.3 15.1 C 110.7 15.5 110.9 16.4 110.9 17.8 L 110.9 21.1 M 76.1 47.8 L 94.2 47.8 L 94.2 39.8 L 86.5 39.8 L 86.5 31 L 93 31 L 93 23.3 L 86.5 23.3 L 86.5 15.7 L 93.5 15.7 L 93.5 7.7 L 76.1 7.7 L 76.1 47.8 M 62.7 47.8 L 71.9 47.8 L 71.9 7.6 L 63.2 7.6 L 63.2 25.7 L 57.3 7.6 L 48.6 7.6 L 48.6 47.8 L 57.3 47.8 L 57.3 29.5 L 62.7 47.8" style="stroke-width: 2px; fill: none; fill-rule: nonzero; paint-order: stroke; stroke-linejoin: round; stroke-linecap: round; stroke: rgb(62, 74, 79);"/>
</svg>